<?xml version="1.0" ?><!DOCTYPE svg  PUBLIC '-//W3C//DTD SVG 1.1//EN'  'http://www.w3.org/Graphics/SVG/1.1/DTD/svg11.dtd'><svg enable-background="new 0 0 64 64" height="64px" version="1.1" viewBox="0 0 64 64" width="64px" xml:space="preserve" xmlns="http://www.w3.org/2000/svg" xmlns:xlink="http://www.w3.org/1999/xlink"><g id="_x35_0_China"/><g id="_x34_9_fever"/><g id="_x34_8_Thermo_Head"/><g id="_x34_7_Call_Hospital"/><g id="_x34_6_Hospital_Bed"/><g id="_x34_5_Eye"/><g id="_x34_4_Ambulance"/><g id="_x34_3_disinfectant"/><g id="_x34_2_Antibody"/><g id="_x34_1_Death"/><g id="_x34_0_Isolation_Room"/><g id="_x33_9_Soap"/><g id="_x33_8_Corona_Virus"/><g id="_x33_7_Medic"/><g id="_x33_6_Vitamin"/><g id="_x33_5_Diare"/><g id="_x33_4_Hand_sanitizer"/><g id="_x33_3_Soap"/><g id="_x33_2_Wash_Hand"/><g id="_x33_1_Wash_with_Soap"/><g id="_x33_0_Stethoscope"/><g id="_x32_9_Lockdown"/><g id="_x32_8_Bat"/><g id="_x32_7_Pills"/><g id="_x32_6_Airborne"/><g id="_x32_5_Lockdown"/><g id="_x32_4_Siocial_Distance"/><g id="_x32_3_Thermometer"/><g id="_x32_2_Hand_Soap"/><g id="_x32_1_Alcohol"/><g id="_x32_0_Vaccine"/><g id="_x31_9_Clinic"/><g id="_x31_8_Check_Up"/><g id="_x31_7_Pneumonia"/><g id="_x31_6_Masker"/><g id="_x31_5_Use_Masker"/><g id="_x31_4_No_Travel"/><g id="_x31_3_No_crowd"/><g id="_x31_2_Work_from_Home"><g><g><g><polygon fill="#DE6C84" points="32,2 2,32 8,32 8,62 56,62 56,32 62,32     "/></g><g><path d="M36,30c0-2.209-1.791-4-4-4s-4,1.791-4,4c0,0.732,0,1.268,0,2c0,2.209,1.791,4,4,4s4-1.791,4-4      C36,31.268,36,30.732,36,30z" fill="#FFDCD2"/></g><g><rect fill="#78A0DC" height="12" width="20" x="22" y="42"/></g><g><rect fill="#FFDCD2" height="8" width="28" x="18" y="54"/></g><g><path d="M34,36h-4c-2.2,0-4,1.8-4,4v2h12v-2C38,37.8,36.2,36,34,36z" fill="#FFDCD2"/></g></g><g><path d="M63.414,30.586l-30-30c-0.78-0.781-2.048-0.781-2.828,0l-30,30c-0.572,0.572-0.743,1.432-0.434,2.179     C0.462,33.513,1.191,34,2,34h4v28c0,1.104,0.896,2,2,2h48c1.104,0,2-0.896,2-2V34h4c0.809,0,1.538-0.487,1.848-1.235     C64.157,32.018,63.986,31.158,63.414,30.586z M30,32v-2c0-1.103,0.897-2,2-2s2,0.897,2,2v2c0,1.103-0.897,2-2,2S30,33.103,30,32z      M30,38h4c1.103,0,2,0.897,2,2h-8C28,38.897,28.897,38,30,38z M40,44v8H24v-8H40z M44,56v4H20v-4H44z M56,30     c-1.104,0-2,0.896-2,2v28h-6v-6c0-1.104-0.896-2-2-2h-2V42c0-1.104-0.896-2-2-2h-2c0-2.123-1.111-3.987-2.779-5.054     C37.715,34.075,38,33.071,38,32v-2c0-3.309-2.691-6-6-6s-6,2.691-6,6v2c0,1.071,0.285,2.075,0.779,2.946     C25.111,36.013,24,37.877,24,40h-2c-1.104,0-2,0.896-2,2v10h-2c-1.104,0-2,0.896-2,2v6h-6V32c0-1.104-0.896-2-2-2H6.829L32,4.829     L57.171,30H56z" fill="#505A64"/><path d="M32,50c0.53,0,1.04-0.21,1.42-0.59C33.79,49.04,34,48.52,34,48s-0.21-1.04-0.58-1.41     c-0.75-0.75-2.09-0.75-2.83,0C30.21,46.96,30,47.47,30,48c0,0.53,0.21,1.04,0.59,1.41C30.96,49.79,31.47,50,32,50z" fill="#505A64"/></g></g></g><g id="_x31_1_Quarantine"/><g id="_x31_0_Face_Contact"/><g id="_x30_9_Headache"/><g id="_x30_8_Puke"/><g id="_x30_7_Sore_Throath"/><g id="_x30_6_Breathe"/><g id="_x30_5_Cough"/><g id="_x30_4_Blood"/><g id="_x30_3_Microscope"/><g id="_x30_2_Pandemic"/><g id="_x30_1_Corona_Virus"/></svg>